<svg id="visual" viewBox="0 0 900 450" xmlns="http://www.w3.org/2000/svg" xmlns:xlink="http://www.w3.org/1999/xlink" version="1.1"><rect x="0" y="0" width="900" height="450" fill="#ffffff"></rect><path d="M0 152L129 113L257 142L386 182L514 169L643 183L771 125L900 193L900 0L771 0L643 0L514 0L386 0L257 0L129 0L0 0Z" fill="#ffffff"></path><path d="M0 154L129 91L257 102L386 124L514 99L643 126L771 145L900 160L900 0L771 0L643 0L514 0L386 0L257 0L129 0L0 0Z" fill="#cccccc"></path><path d="M0 110L129 120L257 77L386 87L514 119L643 134L771 99L900 128L900 0L771 0L643 0L514 0L386 0L257 0L129 0L0 0Z" fill="#9b9b9b"></path><path d="M0 70L129 56L257 51L386 81L514 91L643 56L771 84L900 65L900 0L771 0L643 0L514 0L386 0L257 0L129 0L0 0Z" fill="#6c6c6c"></path><path d="M0 70L129 53L257 31L386 41L514 37L643 71L771 76L900 58L900 0L771 0L643 0L514 0L386 0L257 0L129 0L0 0Z" fill="#414142"></path><path d="M0 29L129 50L257 36L386 28L514 50L643 37L771 22L900 46L900 0L771 0L643 0L514 0L386 0L257 0L129 0L0 0Z" fill="#1a1a1b"></path></svg>