<svg id="visual" viewBox="0 0 960 540" width="960" height="540" xmlns="http://www.w3.org/2000/svg" xmlns:xlink="http://www.w3.org/1999/xlink" version="1.1"><rect width="960" height="540" fill="#1a1a1b"></rect><g><g transform="translate(380 468)"><path d="M0 -53.1L46 -26.6L46 26.6L0 53.1L-46 26.6L-46 -26.6Z" fill="#2a2a2b"></path></g><g transform="translate(145 323)"><path d="M0 -46L39.8 -23L39.8 23L0 46L-39.8 23L-39.8 -23Z" fill="#2a2a2b"></path></g><g transform="translate(122 429)"><path d="M0 -30L26 -15L26 15L0 30L-26 15L-26 -15Z" fill="#2a2a2b"></path></g><g transform="translate(579 98)"><path d="M0 -34L29.4 -17L29.4 17L0 34L-29.4 17L-29.4 -17Z" fill="#2a2a2b"></path></g><g transform="translate(438 202)"><path d="M0 -27L23.4 -13.5L23.4 13.5L0 27L-23.4 13.5L-23.4 -13.5Z" fill="#2a2a2b"></path></g><g transform="translate(328 203)"><path d="M0 -22L19.1 -11L19.1 11L0 22L-19.1 11L-19.1 -11Z" fill="#2a2a2b"></path></g><g transform="translate(268 326)"><path d="M0 -28L24.2 -14L24.2 14L0 28L-24.2 14L-24.2 -14Z" fill="#2a2a2b"></path></g><g transform="translate(716 250)"><path d="M0 -45L39 -22.5L39 22.5L0 45L-39 22.5L-39 -22.5Z" fill="#2a2a2b"></path></g><g transform="translate(315 49)"><path d="M0 -41L35.5 -20.5L35.5 20.5L0 41L-35.5 20.5L-35.5 -20.5Z" fill="#2a2a2b"></path></g><g transform="translate(809 494)"><path d="M0 -21L18.2 -10.5L18.2 10.5L0 21L-18.2 10.5L-18.2 -10.5Z" fill="#2a2a2b"></path></g><g transform="translate(31 507)"><path d="M0 -30L26 -15L26 15L0 30L-26 15L-26 -15Z" fill="#2a2a2b"></path></g><g transform="translate(789 362)"><path d="M0 -24L20.8 -12L20.8 12L0 24L-20.8 12L-20.8 -12Z" fill="#2a2a2b"></path></g><g transform="translate(201 12)"><path d="M0 -24L20.8 -12L20.8 12L0 24L-20.8 12L-20.8 -12Z" fill="#2a2a2b"></path></g><g transform="translate(827 182)"><path d="M0 -26L22.5 -13L22.5 13L0 26L-22.5 13L-22.5 -13Z" fill="#2a2a2b"></path></g><g transform="translate(92 111)"><path d="M0 -35L30.3 -17.5L30.3 17.5L0 35L-30.3 17.5L-30.3 -17.5Z" fill="#2a2a2b"></path></g><g transform="translate(428 85)"><path d="M0 -45L39 -22.5L39 22.5L0 45L-39 22.5L-39 -22.5Z" fill="#2a2a2b"></path></g><g transform="translate(199 174)"><path d="M0 -45L39 -22.5L39 22.5L0 45L-39 22.5L-39 -22.5Z" fill="#2a2a2b"></path></g><g transform="translate(859 80)"><path d="M0 -50L43.3 -25L43.3 25L0 50L-43.3 25L-43.3 -25Z" fill="#2a2a2b"></path></g><g transform="translate(573 273)"><path d="M0 -19L16.5 -9.5L16.5 9.5L0 19L-16.5 9.5L-16.5 -9.5Z" fill="#2a2a2b"></path></g><g transform="translate(254 535)"><path d="M0 -32L27.7 -16L27.7 16L0 32L-27.7 16L-27.7 -16Z" fill="#2a2a2b"></path></g><g transform="translate(939 180)"><path d="M0 -27L23.4 -13.5L23.4 13.5L0 27L-23.4 13.5L-23.4 -13.5Z" fill="#2a2a2b"></path></g><g transform="translate(55 262)"><path d="M0 -21L18.2 -10.5L18.2 10.5L0 21L-18.2 10.5L-18.2 -10.5Z" fill="#2a2a2b"></path></g><g transform="translate(489 363)"><path d="M0 -49L42.4 -24.5L42.4 24.5L0 49L-42.4 24.5L-42.4 -24.5Z" fill="#2a2a2b"></path></g><g transform="translate(895 290)"><path d="M0 -21L18.2 -10.5L18.2 10.5L0 21L-18.2 10.5L-18.2 -10.5Z" fill="#2a2a2b"></path></g><g transform="translate(707 125)"><path d="M0 -29L25.1 -14.5L25.1 14.5L0 29L-25.1 14.5L-25.1 -14.5Z" fill="#2a2a2b"></path></g><g transform="translate(615 391)"><path d="M0 -28L24.2 -14L24.2 14L0 28L-24.2 14L-24.2 -14Z" fill="#2a2a2b"></path></g><g transform="translate(468 537)"><path d="M0 -47L40.7 -23.5L40.7 23.5L0 47L-40.7 23.5L-40.7 -23.5Z" fill="#2a2a2b"></path></g><g transform="translate(397 307)"><path d="M0 -24L20.8 -12L20.8 12L0 24L-20.8 12L-20.8 -12Z" fill="#2a2a2b"></path></g><g transform="translate(935 408)"><path d="M0 -45L39 -22.5L39 22.5L0 45L-39 22.5L-39 -22.5Z" fill="#2a2a2b"></path></g><g transform="translate(772 13)"><path d="M0 -34L29.4 -17L29.4 17L0 34L-29.4 17L-29.4 -17Z" fill="#2a2a2b"></path></g><g transform="translate(6 398)"><path d="M0 -47L40.7 -23.5L40.7 23.5L0 47L-40.7 23.5L-40.7 -23.5Z" fill="#2a2a2b"></path></g><g transform="translate(635 3)"><path d="M0 -23L19.9 -11.5L19.9 11.5L0 23L-19.9 11.5L-19.9 -11.5Z" fill="#2a2a2b"></path></g><g transform="translate(640 509)"><path d="M0 -30L26 -15L26 15L0 30L-26 15L-26 -15Z" fill="#2a2a2b"></path></g><g transform="translate(10 16)"><path d="M0 -26L22.5 -13L22.5 13L0 26L-22.5 13L-22.5 -13Z" fill="#2a2a2b"></path></g><g transform="translate(926 531)"><path d="M0 -49L42.4 -24.5L42.4 24.5L0 49L-42.4 24.5L-42.4 -24.5Z" fill="#2a2a2b"></path></g><g transform="translate(516 4)"><path d="M0 -45L39 -22.5L39 22.5L0 45L-39 22.5L-39 -22.5Z" fill="#2a2a2b"></path></g></g></svg>